<?xml version="1.0" encoding="utf-8"?>
<!-- Generator: Adobe Illustrator 16.0.0, SVG Export Plug-In . SVG Version: 6.00 Build 0)  -->
<!DOCTYPE svg PUBLIC "-//W3C//DTD SVG 1.1//EN" "http://www.w3.org/Graphics/SVG/1.1/DTD/svg11.dtd">
<svg version="1.1" xmlns="http://www.w3.org/2000/svg" xmlns:xlink="http://www.w3.org/1999/xlink" x="0px" y="0px" width="823px"
	 height="414px" viewBox="0 0 823 414" style="enable-background:new 0 0 823 414;" xml:space="preserve">
<style type="text/css">
<![CDATA[
	.st0{fill:#BCDEF4;}
	.st1{fill:#FFFFFF;}
	.st2{fill:#333333;}
	.st3{fill:none;stroke:#000000;stroke-width:2;stroke-miterlimit:10;}
]]>
</style>
<g id="Layer_1">
	<rect class="st2" width="823" height="414"/>
</g>
<g id="Layer_2">
	<line class="st3" x1="-1" y1="0" x2="517" y2="449"/>
	<line class="st3" x1="803.5" y1="-52.5" x2="354.5" y2="465.5"/>
	<line class="st3" x1="655.5" y1="-52.5" x2="206.5" y2="465.5"/>
	<rect x="508" y="138.3" class="st2" width="188.2" height="95.8"/>
	<g>
		<path class="st0" d="M739.6,144.6c-2.9-15-11.6-28.1-17.6-36.2c-5.9-8-17.3-21.7-30.6-25.5c-56.9,66.1-11.2,13.1-48.3,56.5h11.5
			c11.9,0,21.1,3.6,27.7,10.7c-0.1,0-0.1,0.1-0.2,0.1h0.3c6.5,7.1,9.8,19,9.8,35.7c0,16.7-3.3,29-9.9,36.7
			c-6.6,7.7-15.8,11.6-27.7,11.6h-92.9c-19.6,22.7-35.2,40.8-47.8,55.4c-50.9,59.1-51,59.2-51,59.2L586,289.6h62.6h10.9
			c26.6,0,47.1-7.6,61.7-22.8C721.2,266.8,757.5,236,739.6,144.6z"/>
		<path class="st1" d="M477.4,265.5c5.2,7.1,15.9,18,27,22.7l47.3-55.2h-6.9c-11.9,0-21.1-3.6-27.7-10.7c0.1,0,0.1-0.1,0.2-0.1H517
			c-6.5-7.1-9.8-19-9.8-35.7c0-16.7,3.3-29,9.9-36.7c6.6-7.7,15.8-11.6,27.7-11.6h88.1l47.5-55.4h-57.2h-74.1h-9.4
			c-26.6,0-47.1,7.6-61.7,22.8c0,0-36.3,30.8-18.3,122.2C462.8,242.9,471.2,257.2,477.4,265.5z"/>
	</g>
	<rect x="76.1" y="72.3" class="st2" width="259.7" height="162.2"/>
</g>
<g id="Layer_3">
</g>
</svg>
