<?xml version="1.0" encoding="iso-8859-1"?>
<!-- Generator: Adobe Illustrator 16.0.0, SVG Export Plug-In . SVG Version: 6.00 Build 0)  -->
<!DOCTYPE svg PUBLIC "-//W3C//DTD SVG 1.1//EN" "http://www.w3.org/Graphics/SVG/1.1/DTD/svg11.dtd">
<svg version="1.1" id="Layer_1" xmlns="http://www.w3.org/2000/svg" xmlns:xlink="http://www.w3.org/1999/xlink" x="0px" y="0px"
	 width="65.764px" height="65.765px" viewBox="0 0 65.764 65.765" style="enable-background:new 0 0 65.764 65.765;"
	 xml:space="preserve">
<path style="fill:#CCCCCC;" d="M32.882,0C14.722,0,0,14.722,0,32.882s14.722,32.883,32.882,32.883
	c18.161,0,32.881-14.723,32.881-32.883S51.042,0,32.882,0z M32.882,63.456c-16.886,0-30.573-13.689-30.573-30.574
	c0-16.885,13.688-30.573,30.573-30.573c16.885,0,30.573,13.688,30.573,30.573C63.455,49.767,49.767,63.456,32.882,63.456z"/>
<g>
	<path style="fill:#CCCCCC;" d="M14.565,14.388h7.864l10.952,12.973l9.997-12.973h7.863L36.466,32.49l15.385,18.886h-7.82
		l-10.649-14.33l-11.604,14.33h-7.864L29.341,32.49L14.565,14.388z"/>
</g>
</svg>
