<?xml version="1.0" encoding="iso-8859-1"?>
<!-- Generator: Adobe Illustrator 16.0.0, SVG Export Plug-In . SVG Version: 6.00 Build 0)  -->
<!DOCTYPE svg PUBLIC "-//W3C//DTD SVG 1.1//EN" "http://www.w3.org/Graphics/SVG/1.1/DTD/svg11.dtd">
<svg version="1.1" id="Layer_1" xmlns="http://www.w3.org/2000/svg" xmlns:xlink="http://www.w3.org/1999/xlink" x="0px" y="0px"
	 width="65.764px" height="65.765px" viewBox="0 0 65.764 65.765" style="enable-background:new 0 0 65.764 65.765;"
	 xml:space="preserve">
<circle style="fill:#CCCCCC;" cx="32.882" cy="32.882" r="32.882"/>
<g>
	<path style="fill:#333333;" d="M23.924,12.73c2.304-1.484,5.137-2.227,8.496-2.227c4.414,0,8.081,1.055,11.001,3.164
		s4.38,5.234,4.38,9.375c0,2.539-0.633,4.678-1.899,6.416c-0.74,1.055-2.162,2.402-4.266,4.043l-2.074,1.611
		c-1.13,0.879-1.88,1.904-2.25,3.076c-0.234,0.742-0.361,1.895-0.38,3.457h-7.939c0.117-3.301,0.429-5.581,0.935-6.841
		c0.506-1.26,1.811-2.71,3.914-4.351l2.133-1.67c0.701-0.527,1.266-1.103,1.694-1.729c0.778-1.074,1.168-2.256,1.168-3.545
		c0-1.484-0.434-2.837-1.3-4.058c-0.867-1.22-2.451-1.831-4.75-1.831c-2.26,0-3.863,0.752-4.809,2.256
		c-0.944,1.504-1.417,3.066-1.417,4.688h-8.467C18.329,19,20.272,15.055,23.924,12.73z M28.788,45.66h8.76v8.467h-8.76V45.66z"/>
</g>
</svg>
