<?xml version="1.0" encoding="utf-8"?>
<!-- Generator: Adobe Illustrator 16.0.0, SVG Export Plug-In . SVG Version: 6.00 Build 0)  -->
<!DOCTYPE svg PUBLIC "-//W3C//DTD SVG 1.1//EN" "http://www.w3.org/Graphics/SVG/1.1/DTD/svg11.dtd">
<svg version="1.1" id="Layer_1" xmlns="http://www.w3.org/2000/svg" xmlns:xlink="http://www.w3.org/1999/xlink" x="0px" y="0px"
	 width="592.374px" height="543.685px" viewBox="0 0 592.374 543.685" enable-background="new 0 0 592.374 543.685"
	 xml:space="preserve">
<path fill="#BBDEF4" d="M582.175,126.13c-6.012-30.617-23.668-57.45-35.939-73.935C534.078,35.864,510.764,7.904,483.723,0
	c-116.406,135.252-22.845,26.739-98.757,115.573h23.474c24.309,0,43.213,7.296,56.705,21.87c-0.125,0.073-0.26,0.154-0.377,0.227
	h0.557c13.366,14.607,20.059,38.919,20.059,72.97c0,34.22-6.748,59.214-20.238,74.982c-13.492,15.776-32.396,23.655-56.705,23.655
	H218.451c-39.981,46.409-71.943,83.511-97.652,113.366C16.632,543.563,16.527,543.685,16.527,543.685l251.714-121.042h128.021h22.33
	c54.389,0,96.39-15.581,126.146-46.548C544.738,376.095,618.872,313.033,582.175,126.13z"/>
</svg>
