<?xml version="1.0" encoding="utf-8"?>
<!-- Generator: Adobe Illustrator 16.0.0, SVG Export Plug-In . SVG Version: 6.00 Build 0)  -->
<!DOCTYPE svg PUBLIC "-//W3C//DTD SVG 1.1//EN" "http://www.w3.org/Graphics/SVG/1.1/DTD/svg11.dtd">
<svg version="1.1" id="Layer_1" xmlns="http://www.w3.org/2000/svg" xmlns:xlink="http://www.w3.org/1999/xlink" x="0px" y="0px"
	 width="592.374px" height="543.685px" viewBox="0 0 592.374 543.685" enable-background="new 0 0 592.374 543.685"
	 xml:space="preserve">
<path fill="#FFFFFF" d="M46.139,373.447c10.706,14.526,32.421,36.882,55.24,46.465L198.12,307.07h-14.187
	c-24.309,0-43.213-7.296-56.705-21.869c0.126-0.073,0.26-0.155,0.376-0.228h-0.556c-13.366-14.607-20.059-38.92-20.059-72.97
	c0-34.221,6.746-59.215,20.238-74.982c13.492-15.776,32.396-23.655,56.705-23.655h180.242L461.363,0H344.367H192.929h-19.147
	C119.394,0,77.393,15.581,47.636,46.547c0,0-74.134,63.062-37.438,249.965C16.21,327.129,33.544,356.358,46.139,373.447z"/>
</svg>
